<?xml version="1.0" encoding="UTF-8" standalone="no"?>
<!-- Created with Inkscape (http://www.inkscape.org/) -->
<svg
   xmlns:dc="http://purl.org/dc/elements/1.1/"
   xmlns:cc="http://web.resource.org/cc/"
   xmlns:rdf="http://www.w3.org/1999/02/22-rdf-syntax-ns#"
   xmlns:svg="http://www.w3.org/2000/svg"
   xmlns="http://www.w3.org/2000/svg"
   xmlns:sodipodi="http://sodipodi.sourceforge.net/DTD/sodipodi-0.dtd"
   xmlns:inkscape="http://www.inkscape.org/namespaces/inkscape"
   id="svg2"
   sodipodi:version="0.32"
   inkscape:version="0.44.1"
   width="107"
   height="49.139103"
   version="1.0"
   sodipodi:docbase="C:\Documents and Settings\smatif\Desktop"
   sodipodi:docname="FastLogo.svg">
  <metadata
     id="metadata7">
    <rdf:RDF>
      <cc:Work
         rdf:about="">
        <dc:format>image/svg+xml</dc:format>
        <dc:type
           rdf:resource="http://purl.org/dc/dcmitype/StillImage" />
      </cc:Work>
    </rdf:RDF>
  </metadata>
  <defs
     id="defs5" />
  <sodipodi:namedview
     inkscape:window-height="744"
     inkscape:window-width="1280"
     inkscape:pageshadow="2"
     inkscape:pageopacity="0.0"
     guidetolerance="10.0"
     gridtolerance="10.0"
     objecttolerance="10.0"
     borderopacity="1.0"
     bordercolor="#666666"
     pagecolor="#ffffff"
     id="base"
     inkscape:zoom="4.6768291"
     inkscape:cx="135.73573"
     inkscape:cy="28.5"
     inkscape:window-x="-4"
     inkscape:window-y="-4"
     inkscape:current-layer="svg2" />
  <path
     style="fill:#4189d9;fill-opacity:1;stroke:none;stroke-opacity:1"
     d="M 0,24.5 C 0,0.6666667 0.05442,-2.220446e-016 2,-2.220446e-016 C 3.23611,-2.220446e-016 3.70883,0.2691059 3.88923,6.5776943 C 3.99276,10.198551 4,15.808972 4,24.5 C 4,48.333333 3.94558,49 2,49 C 0.05442,49 0,48.333333 0,24.5 z M 6,24.5 C 6,0.6666667 6.05442,-2.220446e-016 8,-2.220446e-016 C 9.94558,-2.220446e-016 10,0.6666667 10,24.5 C 10,48.333333 9.94558,49 8,49 C 6.05442,49 6,48.333333 6,24.5 z M 24.38812,48.019931 C 19.06605,45.869573 16.19483,37.241506 19.03518,31.934259 C 19.98791,30.154077 19.70911,30 15.53518,30 C 11.36432,30 11,29.79917 11,27.5 C 11,25.209518 11.3713,25 15.43045,25 C 19.24207,25 19.90553,25.309527 20.18045,27.216037 C 20.441,29.02293 21.30636,28.192101 24.86746,22.716037 C 28.6542,16.892998 29.63349,16 32.23247,16 L 35.23002,16 L 33.44811,18.75 C 32.46806,20.2625 29.71631,24.420196 27.3331,27.989324 C 22.7996,34.778777 22.0419,38.307448 24.41937,41.55887 C 25.59182,43.162298 27.33154,43.561345 34.41937,43.852616 C 42.70938,44.193289 43,44.286431 43,46.602616 C 43,48.943855 42.80679,48.998516 34.75,48.936614 C 30.2125,48.901751 25.54965,48.489244 24.38812,48.019931 z M 51.20242,47.788633 C 49.71609,47.397382 47.2625,45.61438 45.75,43.826408 C 44.2375,42.038435 43,41.12105 43,41.787774 C 43,42.626837 40.75009,43 35.69113,43 C 22.56326,43 21.51866,39.378994 30.58333,25.294265 C 36.02507,16.838875 36.76188,16.096873 39.76254,16.050462 L 43.02509,16 L 40.65151,19.75 C 39.34605,21.8125 36.4304,26.417501 34.1723,29.983336 C 31.91421,33.54917 30.43608,36.836084 30.88759,37.287588 C 31.33909,37.739093 34.36159,37.971592 37.60425,37.804253 L 43.5,37.5 L 43.5,25 L 43.5,12.5 L 27.25,12.225229 L 11,11.950457 L 11,9.4752288 L 11,7 L 28.46482,7 C 44.70831,7 46.00202,7.135263 46.96482,8.9342588 C 47.53539,10.000388 48,17.081605 48,24.711752 C 48,35.622494 48.32977,39.025794 49.5567,40.777494 C 50.41289,41.999872 51.6239,43 52.24783,43 C 52.87177,43 52.50875,42.362124 51.44113,41.582498 C 49.6993,40.310539 49.44866,38.518465 49,24.128609 C 48.64967,12.892469 48.11164,7.704251 47.20258,6.796111 C 46.26513,5.8596125 41.04592,5.4125537 28.39157,5.184827 C 11.0367,4.8725102 10.8808,4.849854 11.18899,2.684827 C 11.49537,0.5325058 11.76303,0.5 29.17939,0.5 C 45.59491,0.5 47.06041,0.6505322 49.67939,2.6056975 C 51.23072,3.7638312 52.76449,6.013831 53.08776,7.605698 L 53.67553,10.5 L 54.45014,7.734184 C 54.87618,6.212985 56.35987,4.075485 57.74724,2.9841839 C 60.09954,1.1338586 61.84599,1 83.63486,1 L 107,1 L 107,3.5 L 107,6 L 84.65499,6 C 64.27749,6 62.16425,6.161024 60.65499,7.828741 C 57.56533,11.242773 58.13774,12.867388 67.13035,26.207072 C 75.97548,39.327988 75.06206,42.115877 61.60189,43.080807 L 53.5,43.661614 L 61.79545,43.830807 C 69.38636,43.98563 70.29938,43.791531 72.54545,41.545455 C 73.89545,40.195455 75,38.220191 75,37.155979 C 75,36.091768 71.85,30.459368 68,24.639536 C 60.72582,13.643563 59.56492,9.8383978 62.93426,8.035184 C 64.092,7.415579 73.32545,7 85.93426,7 L 107,7 L 107,9.4999998 L 107,12 L 87,12 C 73.63979,12 67,12.350206 67,13.054869 C 67,13.635048 68.7377,16.672548 70.86156,19.804869 C 80.16138,33.520463 81.62854,39.52691 77.05948,45.178644 C 75.3649,47.274772 74.15057,47.548512 64.54383,48 C 58.69239,48.275 52.68876,48.179885 51.20242,47.788633 z M 67.39549,37.1691 C 67.67793,36.712104 66.26013,33.899604 64.24483,30.9191 C 62.22953,27.938595 59.10001,23.051473 57.29033,20.058828 L 54,14.617657 L 54,25.642162 C 54,31.705639 54.3,36.966667 54.66667,37.333333 C 55.6315,38.29817 66.78664,38.154241 67.39549,37.1691 z M 83.44283,47.711612 C 83.17091,47.002998 83.07253,39.015498 83.22421,29.961612 C 83.49586,13.747017 83.53376,13.495205 85.75,13.180449 L 88,12.860898 L 88,30.930449 C 88,48.426391 87.93551,49 85.96861,49 C 84.85135,49 83.71475,48.420225 83.44283,47.711612 z M 89,31 L 89,12.860898 L 91.25,13.180449 C 93.48545,13.497933 93.5,13.6132 93.5,31 C 93.5,48.3868 93.48545,48.502067 91.25,48.819551 L 89,49.139102 L 89,31 z M 11,21.5 C 11,19.203704 11.36667,19 15.5,19 C 19.63333,19 20,19.203704 20,21.5 C 20,23.796296 19.63333,24 15.5,24 C 11.36667,24 11,23.796296 11,21.5 z "
     id="path1873"
     sodipodi:nodetypes="cssssccsssccsssssscccsssssccsssscccsscccccccccssssssssssscccscccccsscccsssscccccssssccscccsccscccsccccsccccsssc" />
</svg>
