<?xml version="1.0" standalone="no"?>
<!DOCTYPE svg PUBLIC "-//W3C//DTD SVG 20010904//EN"
 "http://www.w3.org/TR/2001/REC-SVG-20010904/DTD/svg10.dtd">
<svg version="1.0" xmlns="http://www.w3.org/2000/svg"
 width="608.000000pt" height="183.000000pt" viewBox="0 0 608.000000 183.000000"
 preserveAspectRatio="xMidYMid meet">
<metadata>
Created by potrace 1.16, written by Peter Selinger 2001-2019
</metadata>
<g transform="translate(0.000000,183.000000) scale(0.100000,-0.100000)"
fill="#000000" stroke="none">
<path d="M3310 1520 c-6 -11 -15 -18 -21 -15 -5 4 -9 1 -9 -5 0 -7 -7 -9 -16
-6 -9 4 -26 1 -38 -7 -12 -7 -48 -21 -81 -32 -33 -10 -64 -22 -70 -27 -5 -4
-17 -8 -27 -8 -10 0 -18 -5 -18 -11 0 -5 -4 -8 -9 -5 -18 11 -181 -86 -235
-140 -27 -28 -27 -29 -8 -32 12 -2 43 7 69 19 26 12 52 23 56 23 4 1 11 6 15
12 10 15 76 44 100 44 12 0 23 4 27 10 3 5 12 7 20 3 8 -3 15 0 15 6 0 14 78
51 109 51 14 0 39 7 55 15 15 8 34 15 42 15 24 0 54 42 54 77 0 37 -14 43 -30
13z"/>
<path d="M4354 1372 c-12 -2 -34 -16 -49 -33 -16 -16 -37 -29 -47 -29 -10 0
-18 -4 -18 -10 0 -5 -5 -10 -10 -10 -16 0 -129 -117 -183 -189 -26 -35 -63
-96 -81 -135 -38 -79 -69 -176 -57 -176 4 0 14 19 21 43 27 91 104 228 164
291 20 21 33 43 29 49 -3 6 -1 7 5 3 6 -4 21 7 33 24 13 16 29 30 36 30 8 0
16 7 19 15 3 8 15 17 26 21 12 4 17 11 13 21 -4 13 -3 14 10 3 12 -10 18 -10
30 0 8 7 12 17 8 24 -3 6 -3 8 2 4 4 -4 14 -3 21 3 8 6 29 11 48 11 19 0 43 7
53 15 17 13 17 14 1 9 -10 -3 -18 -2 -18 3 0 11 -29 18 -56 13z"/>
<path d="M2715 1183 c-29 -7 -281 -264 -349 -354 -84 -113 -139 -215 -177
-331 -19 -57 -36 -105 -39 -108 -3 -3 -5 -24 -5 -47 0 -24 -3 -43 -7 -43 -5 0
-8 -12 -8 -26 0 -32 21 -27 31 7 12 45 101 213 139 264 21 28 41 60 45 73 3
12 11 22 17 22 5 0 8 7 4 15 -3 8 -1 15 4 15 5 0 7 7 4 15 -6 13 6 20 29 16 4
0 7 10 7 24 0 14 5 25 10 25 16 0 12 18 -8 38 -21 21 -22 19 42 95 22 26 45
47 53 47 7 0 13 6 13 13 0 14 120 137 134 137 4 0 17 11 27 25 13 16 26 22 37
18 9 -3 14 -2 9 2 -4 5 5 21 20 37 24 25 25 28 7 27 -10 -1 -28 -4 -39 -6z"/>
<path d="M2328 1050 c-126 -84 -177 -213 -183 -465 l-4 -150 18 151 c10 83 22
161 26 175 13 46 39 99 47 99 5 0 8 6 7 13 -3 18 26 78 34 70 4 -3 7 1 7 11 0
9 7 19 16 23 8 3 13 12 10 20 -3 8 -1 11 4 8 6 -3 13 1 16 9 3 9 12 16 19 16
16 0 38 26 33 40 -2 6 -24 -3 -50 -20z"/>
<path d="M4950 966 c-6 -8 -17 -13 -24 -10 -7 3 -19 -2 -26 -11 -7 -8 -17 -15
-22 -15 -5 0 -28 -9 -50 -20 -23 -11 -46 -20 -51 -20 -6 0 -52 -20 -103 -45
-50 -25 -97 -45 -103 -45 -6 0 -11 -5 -11 -10 0 -6 -3 -9 -7 -8 -10 3 -176
-88 -283 -156 -106 -67 -420 -331 -420 -353 0 -13 3 -13 18 -2 9 7 27 24 39
37 12 13 24 23 27 23 3 -1 32 12 64 28 69 35 152 67 292 114 161 55 329 119
382 148 10 5 26 9 35 9 10 0 27 7 37 15 11 8 27 15 37 15 9 0 19 6 22 14 3 8
14 12 25 10 10 -3 24 1 31 10 7 8 19 12 26 10 7 -3 24 1 37 10 13 8 26 15 31
16 16 1 11 13 -6 16 -10 1 -26 -6 -35 -17 -11 -13 -18 -15 -23 -7 -5 8 -14 7
-33 -5 -14 -9 -32 -17 -41 -17 -8 0 -15 -4 -15 -10 0 -5 -8 -10 -18 -10 -10 0
-27 -7 -38 -15 -10 -8 -27 -15 -37 -15 -9 0 -36 -8 -60 -19 -23 -10 -67 -28
-97 -41 -30 -13 -70 -29 -88 -37 -18 -8 -40 -16 -50 -18 -14 -3 -249 -87 -377
-134 l-30 -11 35 30 c145 127 368 273 527 345 43 20 90 43 105 51 14 8 33 14
42 14 9 0 16 5 16 10 0 6 7 10 16 10 15 0 67 21 137 56 16 8 35 14 43 14 16 0
54 35 54 50 0 15 -16 12 -30 -4z"/>
</g>
</svg>
